<svg xmlns="http://www.w3.org/2000/svg" width="960" height="560" viewBox="0 0 960 560" role="img" aria-label="Edo Tensei · Open VSX Registry line chart">
  <defs>
    <style>
      @import url('https://fonts.googleapis.com/css2?family=Caveat:wght@400;700&amp;display=swap');
      text { font-family: 'Caveat', cursive, sans-serif; }
    </style>
  </defs>
  <rect width="960" height="560" fill="#fdfaf6"/>
  <text x="480" y="38" text-anchor="middle" font-size="26" font-weight="700" fill="#2c2a29">Edo Tensei · Open VSX Registry</text>
  <g transform="translate(387.5,76)"><rect x="0" y="-15" width="185" height="30" rx="3" fill="#fdfaf6" stroke="#2c2a29" stroke-width="1.5"/><line x1="10" y1="0" x2="32" y2="0" stroke="#ef3b20" stroke-width="3.5" stroke-linecap="round"/><text x="40" y="6" font-family="'Caveat', cursive, sans-serif" font-size="15" font-weight="700" fill="#2c2a29">downloads</text></g>
  <line x1="96" y1="455.0" x2="856" y2="455.6" stroke="#2c2a29" stroke-width="1" stroke-dasharray="6 4" opacity="0.2"/><text x="86" y="461.0" text-anchor="end" font-family="'Caveat', cursive, sans-serif" font-size="16" font-weight="600" fill="#2c2a29">1.5K</text>
  <line x1="96" y1="370.9" x2="856" y2="370.0" stroke="#2c2a29" stroke-width="1" stroke-dasharray="6 4" opacity="0.2"/><text x="86" y="374.9" text-anchor="end" font-family="'Caveat', cursive, sans-serif" font-size="16" font-weight="600" fill="#2c2a29">1.9K</text>
  <line x1="96" y1="284.1" x2="856" y2="284.8" stroke="#2c2a29" stroke-width="1" stroke-dasharray="6 4" opacity="0.2"/><text x="86" y="289.0" text-anchor="end" font-family="'Caveat', cursive, sans-serif" font-size="16" font-weight="600" fill="#2c2a29">2.3K</text>
  <line x1="96" y1="197.3" x2="856" y2="198.7" stroke="#2c2a29" stroke-width="1" stroke-dasharray="6 4" opacity="0.2"/><text x="86" y="202.9" text-anchor="end" font-family="'Caveat', cursive, sans-serif" font-size="16" font-weight="600" fill="#2c2a29">2.6K</text>
  <line x1="96" y1="112.1" x2="856" y2="111.3" stroke="#2c2a29" stroke-width="1" stroke-dasharray="6 4" opacity="0.2"/><text x="86" y="117.0" text-anchor="end" font-family="'Caveat', cursive, sans-serif" font-size="16" font-weight="600" fill="#2c2a29">3K</text>
  <path d="M94.8,111.7 L94.7,456.8 L854.8,456.0" fill="none" stroke="#2c2a29" stroke-width="2.5" stroke-linecap="round"/>
  
  <path d="M97.7,422.3 L178.2,425.8 L349.3,391.1 L431.4,365.4 L520.2,340.8 L688.0,310.2 L854.8,264.3" fill="none" stroke="#ef3b20" stroke-width="3.5" stroke-linecap="round" stroke-linejoin="round"/>
  <circle cx="96.0" cy="424.3" r="3.5" fill="#ef3b20"/>
  <circle cx="180.4" cy="423.9" r="3.5" fill="#ef3b20"/>
  <circle cx="349.3" cy="391.3" r="3.5" fill="#ef3b20"/>
  <circle cx="433.8" cy="364.3" r="3.5" fill="#ef3b20"/>
  <circle cx="518.2" cy="340.6" r="3.5" fill="#ef3b20"/>
  <circle cx="687.1" cy="308.0" r="3.5" fill="#ef3b20"/>
  <circle cx="856.0" cy="266.5" r="3.5" fill="#ef3b20"/>
  <text x="776.0" y="256.5" font-family="'Caveat', cursive, sans-serif" font-size="16" font-weight="700" fill="#ef3b20">2,336</text>
  <text x="96.0" y="482" text-anchor="middle" font-family="'Caveat', cursive, sans-serif" font-size="15" font-weight="600" fill="#2c2a29">May 17</text>
  <text x="264.9" y="482" text-anchor="middle" font-family="'Caveat', cursive, sans-serif" font-size="15" font-weight="600" fill="#2c2a29">May 19</text>
  <text x="518.2" y="482" text-anchor="middle" font-family="'Caveat', cursive, sans-serif" font-size="15" font-weight="600" fill="#2c2a29">May 22</text>
  <text x="687.1" y="482" text-anchor="middle" font-family="'Caveat', cursive, sans-serif" font-size="15" font-weight="600" fill="#2c2a29">May 24</text>
  <text x="856.0" y="482" text-anchor="middle" font-family="'Caveat', cursive, sans-serif" font-size="15" font-weight="600" fill="#2c2a29">May 26</text>
  <text x="476" y="546" text-anchor="middle" font-family="'Caveat', cursive, sans-serif" font-size="17" font-weight="600" fill="#5c5a59">Date</text>
  <text transform="translate(22 284) rotate(-90)" text-anchor="middle" font-family="'Caveat', cursive, sans-serif" font-size="17" font-weight="600" fill="#5c5a59">Downloads</text>
  
  
</svg>
