<svg xmlns="http://www.w3.org/2000/svg" width="960" height="560" viewBox="0 0 960 560" role="img" aria-label="ripgrep-github GitHub Releases History line chart">
  <rect width="960" height="560" fill="#ffffff"/>
  <text x="480" y="42" text-anchor="middle" font-family="Segoe UI, Arial, sans-serif" font-size="24" font-weight="700" fill="#111827">GitHub Releases History</text>
  <g transform="translate(104,64)"><rect x="0" y="-13" width="150" height="28" rx="4" fill="#ffffff" stroke="#111827" stroke-width="2"/><line x1="12" y1="1" x2="34" y2="1" stroke="#ef3b20" stroke-width="4" stroke-linecap="round"/><text x="44" y="6" font-family="Segoe UI, Arial, sans-serif" font-size="13" font-weight="600" fill="#111827">release downloads</text></g>
  <line x1="96" y1="456.0" x2="886" y2="456.0" stroke="#e5e7eb" stroke-width="1"/><text x="82" y="461.0" text-anchor="end" font-family="Segoe UI, Arial, sans-serif" font-size="14" font-weight="600" fill="#111827">0</text>
  <line x1="96" y1="363.5" x2="886" y2="363.5" stroke="#e5e7eb" stroke-width="1"/><text x="82" y="368.5" text-anchor="end" font-family="Segoe UI, Arial, sans-serif" font-size="14" font-weight="600" fill="#111827">7.5M</text>
  <line x1="96" y1="271.0" x2="886" y2="271.0" stroke="#e5e7eb" stroke-width="1"/><text x="82" y="276.0" text-anchor="end" font-family="Segoe UI, Arial, sans-serif" font-size="14" font-weight="600" fill="#111827">15M</text>
  <line x1="96" y1="178.5" x2="886" y2="178.5" stroke="#e5e7eb" stroke-width="1"/><text x="82" y="183.5" text-anchor="end" font-family="Segoe UI, Arial, sans-serif" font-size="14" font-weight="600" fill="#111827">22.5M</text>
  <line x1="96" y1="86.0" x2="886" y2="86.0" stroke="#e5e7eb" stroke-width="1"/><text x="82" y="91.0" text-anchor="end" font-family="Segoe UI, Arial, sans-serif" font-size="14" font-weight="600" fill="#111827">30M</text>
  <path d="M96,86 L96,456 L886,456" fill="none" stroke="#111827" stroke-width="3" stroke-linecap="round"/>
  <path d="M96.0,123.2 L886.0,121.8" fill="none" stroke="#ef3b20" stroke-width="3.5" stroke-linecap="round" stroke-linejoin="round"/>
  <circle cx="96.0" cy="123.2" r="3.2" fill="#ef3b20"/>
  <circle cx="886.0" cy="121.8" r="3.2" fill="#ef3b20"/>
  <text x="806.0" y="111.8" font-family="Segoe UI, Arial, sans-serif" font-size="13" font-weight="700" fill="#ef3b20">27,099,474</text>
  <text x="96.0" y="484" text-anchor="middle" font-family="Segoe UI, Arial, sans-serif" font-size="14" font-weight="600" fill="#111827">May 17</text>
  <text x="886.0" y="484" text-anchor="middle" font-family="Segoe UI, Arial, sans-serif" font-size="14" font-weight="600" fill="#111827">May 18</text>
  <text x="491" y="532" text-anchor="middle" font-family="Segoe UI, Arial, sans-serif" font-size="16" font-weight="600" fill="#111827">Date</text>
  <text transform="translate(28 271) rotate(-90)" text-anchor="middle" font-family="Segoe UI, Arial, sans-serif" font-size="16" font-weight="600" fill="#111827">Release Downloads</text>
  
</svg>
