<svg xmlns="http://www.w3.org/2000/svg" width="960" height="560" viewBox="0 0 960 560" role="img" aria-label="ubuntu-docker Docker Hub History line chart">
  <rect width="960" height="560" fill="#ffffff"/>
  <text x="480" y="42" text-anchor="middle" font-family="Segoe UI, Arial, sans-serif" font-size="24" font-weight="700" fill="#111827">Docker Hub History</text>
  <g transform="translate(104,64)"><rect x="0" y="-13" width="150" height="28" rx="4" fill="#ffffff" stroke="#111827" stroke-width="2"/><line x1="12" y1="1" x2="34" y2="1" stroke="#ef3b20" stroke-width="4" stroke-linecap="round"/><text x="44" y="6" font-family="Segoe UI, Arial, sans-serif" font-size="13" font-weight="600" fill="#111827">pulls</text></g>
  <line x1="96" y1="456.0" x2="886" y2="456.0" stroke="#e5e7eb" stroke-width="1"/><text x="82" y="461.0" text-anchor="end" font-family="Segoe UI, Arial, sans-serif" font-size="14" font-weight="600" fill="#111827">0</text>
  <line x1="96" y1="363.5" x2="886" y2="363.5" stroke="#e5e7eb" stroke-width="1"/><text x="82" y="368.5" text-anchor="end" font-family="Segoe UI, Arial, sans-serif" font-size="14" font-weight="600" fill="#111827">2.5B</text>
  <line x1="96" y1="271.0" x2="886" y2="271.0" stroke="#e5e7eb" stroke-width="1"/><text x="82" y="276.0" text-anchor="end" font-family="Segoe UI, Arial, sans-serif" font-size="14" font-weight="600" fill="#111827">5B</text>
  <line x1="96" y1="178.5" x2="886" y2="178.5" stroke="#e5e7eb" stroke-width="1"/><text x="82" y="183.5" text-anchor="end" font-family="Segoe UI, Arial, sans-serif" font-size="14" font-weight="600" fill="#111827">7.5B</text>
  <line x1="96" y1="86.0" x2="886" y2="86.0" stroke="#e5e7eb" stroke-width="1"/><text x="82" y="91.0" text-anchor="end" font-family="Segoe UI, Arial, sans-serif" font-size="14" font-weight="600" fill="#111827">10B</text>
  <path d="M96,86 L96,456 L886,456" fill="none" stroke="#111827" stroke-width="3" stroke-linecap="round"/>
  <circle cx="491.0" cy="90.3" r="6" fill="#ef3b20"/><text x="503.0" y="80.3" font-family="Segoe UI, Arial, sans-serif" font-size="13" font-weight="700" fill="#ef3b20">9,884,509,089</text>
  <text x="491.0" y="484" text-anchor="middle" font-family="Segoe UI, Arial, sans-serif" font-size="14" font-weight="600" fill="#111827">May 17</text>
  <text x="491" y="532" text-anchor="middle" font-family="Segoe UI, Arial, sans-serif" font-size="16" font-weight="600" fill="#111827">Date</text>
  <text transform="translate(28 271) rotate(-90)" text-anchor="middle" font-family="Segoe UI, Arial, sans-serif" font-size="16" font-weight="600" fill="#111827">Pulls</text>
  
</svg>
