<svg xmlns="http://www.w3.org/2000/svg" width="960" height="560" viewBox="0 0 960 560" role="img" aria-label="Quick Prompt · VS Code Marketplace line chart">
  <defs>
    <style>
      @import url('https://fonts.googleapis.com/css2?family=Caveat:wght@400;700&amp;display=swap');
      text { font-family: 'Caveat', cursive, sans-serif; }
    </style>
  </defs>
  <rect width="960" height="560" fill="#fdfaf6"/>
  <text x="480" y="38" text-anchor="middle" font-size="26" font-weight="700" fill="#2c2a29">Quick Prompt · VS Code Marketplace</text>
  <g transform="translate(287.5,76)"><rect x="0" y="-15" width="185" height="30" rx="3" fill="#fdfaf6" stroke="#2c2a29" stroke-width="1.5"/><line x1="10" y1="0" x2="32" y2="0" stroke="#2563eb" stroke-width="3.5" stroke-linecap="round"/><text x="40" y="6" font-family="'Caveat', cursive, sans-serif" font-size="15" font-weight="700" fill="#2c2a29">installs (left)</text></g>
  <g transform="translate(487.5,76)"><rect x="0" y="-15" width="185" height="30" rx="3" fill="#fdfaf6" stroke="#2c2a29" stroke-width="1.5"/><line x1="10" y1="0" x2="32" y2="0" stroke="#ef3b20" stroke-width="3.5" stroke-linecap="round"/><text x="40" y="6" font-family="'Caveat', cursive, sans-serif" font-size="15" font-weight="700" fill="#2c2a29">downloads (right)</text></g>
  <line x1="96" y1="455.0" x2="856" y2="455.6" stroke="#2c2a29" stroke-width="1" stroke-dasharray="6 4" opacity="0.15"/>
  <line x1="96" y1="353.8" x2="856" y2="352.9" stroke="#2c2a29" stroke-width="1" stroke-dasharray="6 4" opacity="0.15"/>
  <line x1="96" y1="284.1" x2="856" y2="284.8" stroke="#2c2a29" stroke-width="1" stroke-dasharray="6 4" opacity="0.15"/>
  <line x1="96" y1="180.2" x2="856" y2="181.6" stroke="#2c2a29" stroke-width="1" stroke-dasharray="6 4" opacity="0.15"/>
  <line x1="96" y1="112.1" x2="856" y2="111.3" stroke="#2c2a29" stroke-width="1" stroke-dasharray="6 4" opacity="0.15"/>
  <line x1="90" y1="456.0" x2="96" y2="456.0" stroke="#2563eb" stroke-width="2"/><text x="86" y="461.0" text-anchor="end" font-family="'Caveat', cursive, sans-serif" font-size="15" font-weight="700" fill="#2563eb">40</text>
  <line x1="90" y1="352.8" x2="96" y2="352.8" stroke="#2563eb" stroke-width="2"/><text x="86" y="357.8" text-anchor="end" font-family="'Caveat', cursive, sans-serif" font-size="15" font-weight="700" fill="#2563eb">43</text>
  <line x1="90" y1="284.0" x2="96" y2="284.0" stroke="#2563eb" stroke-width="2"/><text x="86" y="289.0" text-anchor="end" font-family="'Caveat', cursive, sans-serif" font-size="15" font-weight="700" fill="#2563eb">45</text>
  <line x1="90" y1="180.8" x2="96" y2="180.8" stroke="#2563eb" stroke-width="2"/><text x="86" y="185.8" text-anchor="end" font-family="'Caveat', cursive, sans-serif" font-size="15" font-weight="700" fill="#2563eb">48</text>
  <line x1="90" y1="112.0" x2="96" y2="112.0" stroke="#2563eb" stroke-width="2"/><text x="86" y="117.0" text-anchor="end" font-family="'Caveat', cursive, sans-serif" font-size="15" font-weight="700" fill="#2563eb">50</text>
  <line x1="856" y1="456.0" x2="862" y2="456.0" stroke="#ef3b20" stroke-width="2"/><text x="866" y="461.0" text-anchor="start" font-family="'Caveat', cursive, sans-serif" font-size="15" font-weight="700" fill="#ef3b20">523</text>
  <line x1="856" y1="370.5" x2="862" y2="370.5" stroke="#ef3b20" stroke-width="2"/><text x="866" y="375.5" text-anchor="start" font-family="'Caveat', cursive, sans-serif" font-size="15" font-weight="700" fill="#ef3b20">567</text>
  <line x1="856" y1="283.0" x2="862" y2="283.0" stroke="#ef3b20" stroke-width="2"/><text x="866" y="288.0" text-anchor="start" font-family="'Caveat', cursive, sans-serif" font-size="15" font-weight="700" fill="#ef3b20">612</text>
  <line x1="856" y1="197.5" x2="862" y2="197.5" stroke="#ef3b20" stroke-width="2"/><text x="866" y="202.5" text-anchor="start" font-family="'Caveat', cursive, sans-serif" font-size="15" font-weight="700" fill="#ef3b20">656</text>
  <line x1="856" y1="112.0" x2="862" y2="112.0" stroke="#ef3b20" stroke-width="2"/><text x="866" y="117.0" text-anchor="start" font-family="'Caveat', cursive, sans-serif" font-size="15" font-weight="700" fill="#ef3b20">700</text>
  <path d="M94.8,111.7 L94.7,456.8 L854.8,456.0" fill="none" stroke="#2c2a29" stroke-width="2.5" stroke-linecap="round"/>
  <path d="M855.9,111.0 L854.6,456.4" fill="none" stroke="#2c2a29" stroke-width="2" stroke-linecap="round" stroke-dasharray="4 3" opacity="0.5"/>
  <path d="M97.7,419.6 L157.1,423.5 L285.9,421.4 L347.0,422.7 L414.7,421.9 L540.3,423.8 L728.1,419.4 L854.3,385.2" fill="none" stroke="#2563eb" stroke-width="3.5" stroke-linecap="round" stroke-linejoin="round"/>
  <circle cx="96.0" cy="421.6" r="3.5" fill="#2563eb"/>
  <circle cx="159.3" cy="421.6" r="3.5" fill="#2563eb"/>
  <circle cx="286.0" cy="421.6" r="3.5" fill="#2563eb"/>
  <circle cx="349.3" cy="421.6" r="3.5" fill="#2563eb"/>
  <circle cx="412.7" cy="421.6" r="3.5" fill="#2563eb"/>
  <circle cx="539.3" cy="421.6" r="3.5" fill="#2563eb"/>
  <circle cx="729.3" cy="421.6" r="3.5" fill="#2563eb"/>
  <circle cx="856.0" cy="387.2" r="3.5" fill="#2563eb"/>
  <text x="776.0" y="377.2" font-family="'Caveat', cursive, sans-serif" font-size="16" font-weight="700" fill="#2563eb">42</text>
  <path d="M95.3,419.1 L161.2,414.7 L287.5,372.7 L348.8,333.7 L411.5,325.7 L537.2,292.2 L728.2,251.6 L853.9,240.3" fill="none" stroke="#ef3b20" stroke-width="3.5" stroke-linecap="round" stroke-linejoin="round"/>
  <circle cx="96.0" cy="419.1" r="3.5" fill="#ef3b20"/>
  <circle cx="159.3" cy="415.2" r="3.5" fill="#ef3b20"/>
  <circle cx="286.0" cy="374.4" r="3.5" fill="#ef3b20"/>
  <circle cx="349.3" cy="335.5" r="3.5" fill="#ef3b20"/>
  <circle cx="412.7" cy="327.7" r="3.5" fill="#ef3b20"/>
  <circle cx="539.3" cy="294.7" r="3.5" fill="#ef3b20"/>
  <circle cx="729.3" cy="253.9" r="3.5" fill="#ef3b20"/>
  <circle cx="856.0" cy="238.3" r="3.5" fill="#ef3b20"/>
  <text x="776.0" y="228.3" font-family="'Caveat', cursive, sans-serif" font-size="16" font-weight="700" fill="#ef3b20">635</text>
  <text x="96.0" y="482" text-anchor="middle" font-family="'Caveat', cursive, sans-serif" font-size="15" font-weight="600" fill="#2c2a29">May 17</text>
  <text x="286.0" y="482" text-anchor="middle" font-family="'Caveat', cursive, sans-serif" font-size="15" font-weight="600" fill="#2c2a29">May 20</text>
  <text x="476.0" y="482" text-anchor="middle" font-family="'Caveat', cursive, sans-serif" font-size="15" font-weight="600" fill="#2c2a29">May 23</text>
  <text x="666.0" y="482" text-anchor="middle" font-family="'Caveat', cursive, sans-serif" font-size="15" font-weight="600" fill="#2c2a29">May 26</text>
  <text x="856.0" y="482" text-anchor="middle" font-family="'Caveat', cursive, sans-serif" font-size="15" font-weight="600" fill="#2c2a29">May 29</text>
  <text x="476" y="546" text-anchor="middle" font-family="'Caveat', cursive, sans-serif" font-size="17" font-weight="600" fill="#5c5a59">Date</text>
  <text transform="translate(22 284) rotate(-90)" text-anchor="middle" font-family="'Caveat', cursive, sans-serif" font-size="17" font-weight="700" fill="#2563eb">installs</text>
  <text transform="translate(946 284) rotate(90)" text-anchor="middle" font-family="'Caveat', cursive, sans-serif" font-size="17" font-weight="700" fill="#ef3b20">downloads</text>
  
</svg>
