<svg xmlns="http://www.w3.org/2000/svg" width="960" height="560" viewBox="0 0 960 560" role="img" aria-label="VirtualTabs · VS Code Marketplace line chart">
  <defs>
    <style>
      @import url('https://fonts.googleapis.com/css2?family=Caveat:wght@400;700&amp;display=swap');
      text { font-family: 'Caveat', cursive, sans-serif; }
    </style>
  </defs>
  <rect width="960" height="560" fill="#fdfaf6"/>
  <text x="480" y="38" text-anchor="middle" font-size="26" font-weight="700" fill="#2c2a29">VirtualTabs · VS Code Marketplace</text>
  <g transform="translate(287.5,76)"><rect x="0" y="-15" width="185" height="30" rx="3" fill="#fdfaf6" stroke="#2c2a29" stroke-width="1.5"/><line x1="10" y1="0" x2="32" y2="0" stroke="#2563eb" stroke-width="3.5" stroke-linecap="round"/><text x="40" y="6" font-family="'Caveat', cursive, sans-serif" font-size="15" font-weight="700" fill="#2c2a29">installs (left)</text></g>
  <g transform="translate(487.5,76)"><rect x="0" y="-15" width="185" height="30" rx="3" fill="#fdfaf6" stroke="#2c2a29" stroke-width="1.5"/><line x1="10" y1="0" x2="32" y2="0" stroke="#ef3b20" stroke-width="3.5" stroke-linecap="round"/><text x="40" y="6" font-family="'Caveat', cursive, sans-serif" font-size="15" font-weight="700" fill="#2c2a29">downloads (right)</text></g>
  <line x1="96" y1="455.0" x2="856" y2="455.6" stroke="#2c2a29" stroke-width="1" stroke-dasharray="6 4" opacity="0.15"/>
  <line x1="96" y1="371.6" x2="856" y2="370.8" stroke="#2c2a29" stroke-width="1" stroke-dasharray="6 4" opacity="0.15"/>
  <line x1="96" y1="282.9" x2="856" y2="283.5" stroke="#2c2a29" stroke-width="1" stroke-dasharray="6 4" opacity="0.15"/>
  <line x1="96" y1="196.8" x2="856" y2="198.2" stroke="#2c2a29" stroke-width="1" stroke-dasharray="6 4" opacity="0.15"/>
  <line x1="96" y1="112.1" x2="856" y2="111.3" stroke="#2c2a29" stroke-width="1" stroke-dasharray="6 4" opacity="0.15"/>
  <line x1="90" y1="456.0" x2="96" y2="456.0" stroke="#2563eb" stroke-width="2"/><text x="86" y="461.0" text-anchor="end" font-family="'Caveat', cursive, sans-serif" font-size="15" font-weight="700" fill="#2563eb">263</text>
  <line x1="90" y1="370.6" x2="96" y2="370.6" stroke="#2563eb" stroke-width="2"/><text x="86" y="375.6" text-anchor="end" font-family="'Caveat', cursive, sans-serif" font-size="15" font-weight="700" fill="#2563eb">297</text>
  <line x1="90" y1="282.7" x2="96" y2="282.7" stroke="#2563eb" stroke-width="2"/><text x="86" y="287.7" text-anchor="end" font-family="'Caveat', cursive, sans-serif" font-size="15" font-weight="700" fill="#2563eb">332</text>
  <line x1="90" y1="197.4" x2="96" y2="197.4" stroke="#2563eb" stroke-width="2"/><text x="86" y="202.4" text-anchor="end" font-family="'Caveat', cursive, sans-serif" font-size="15" font-weight="700" fill="#2563eb">366</text>
  <line x1="90" y1="112.0" x2="96" y2="112.0" stroke="#2563eb" stroke-width="2"/><text x="86" y="117.0" text-anchor="end" font-family="'Caveat', cursive, sans-serif" font-size="15" font-weight="700" fill="#2563eb">400</text>
  <line x1="856" y1="456.0" x2="862" y2="456.0" stroke="#ef3b20" stroke-width="2"/><text x="866" y="461.0" text-anchor="start" font-family="'Caveat', cursive, sans-serif" font-size="15" font-weight="700" fill="#ef3b20">884</text>
  <line x1="856" y1="370.0" x2="862" y2="370.0" stroke="#ef3b20" stroke-width="2"/><text x="866" y="375.0" text-anchor="start" font-family="'Caveat', cursive, sans-serif" font-size="15" font-weight="700" fill="#ef3b20">1.2K</text>
  <line x1="856" y1="284.0" x2="862" y2="284.0" stroke="#ef3b20" stroke-width="2"/><text x="866" y="289.0" text-anchor="start" font-family="'Caveat', cursive, sans-serif" font-size="15" font-weight="700" fill="#ef3b20">1.4K</text>
  <line x1="856" y1="198.0" x2="862" y2="198.0" stroke="#ef3b20" stroke-width="2"/><text x="866" y="203.0" text-anchor="start" font-family="'Caveat', cursive, sans-serif" font-size="15" font-weight="700" fill="#ef3b20">1.7K</text>
  <line x1="856" y1="112.0" x2="862" y2="112.0" stroke="#ef3b20" stroke-width="2"/><text x="866" y="117.0" text-anchor="start" font-family="'Caveat', cursive, sans-serif" font-size="15" font-weight="700" fill="#ef3b20">2K</text>
  <path d="M94.8,111.7 L94.7,456.8 L854.8,456.0" fill="none" stroke="#2c2a29" stroke-width="2.5" stroke-linecap="round"/>
  <path d="M855.9,111.0 L854.6,456.4" fill="none" stroke="#2c2a29" stroke-width="2" stroke-linecap="round" stroke-dasharray="4 3" opacity="0.5"/>
  <path d="M97.7,418.8 L131.3,410.2 L142.9,405.5 L168.7,401.9 L182.5,398.5 L200.1,398.0 L226.1,386.0 L244.4,381.2 L257.1,379.3 L262.6,378.2 L274.8,368.2 L290.8,364.4 L310.5,359.1 L319.6,355.4 L332.1,348.2 L340.2,349.1 L375.3,345.6 L384.8,345.7 L406.0,345.3 L441.7,334.9 L453.1,333.9 L517.6,321.7 L534.7,319.5 L544.9,319.1 L639.4,306.5 L648.1,302.9 L659.9,306.8 L666.8,306.0 L703.7,298.8 L713.7,298.7 L744.6,285.4 L800.8,275.3 L855.5,256.3" fill="none" stroke="#2563eb" stroke-width="3.5" stroke-linecap="round" stroke-linejoin="round"/>
  <circle cx="856.0" cy="255.1" r="5" fill="#2563eb"/>
  <text x="776.0" y="245.1" font-family="'Caveat', cursive, sans-serif" font-size="16" font-weight="700" fill="#2563eb">343</text>
  <path d="M95.3,429.2 L135.4,407.7 L144.4,404.7 L170.5,396.2 L179.3,394.8 L197.0,388.8 L226.2,383.7 L244.1,385.9 L253.3,381.6 L266.8,377.4 L275.8,380.6 L293.4,375.5 L313.1,376.4 L323.3,374.4 L331.0,373.3 L339.6,370.5 L379.3,363.1 L388.2,363.9 L405.7,362.0 L440.8,351.0 L454.5,351.2 L516.1,343.5 L535.7,335.7 L547.7,332.9 L640.7,323.6 L650.5,325.2 L660.9,321.0 L667.4,321.3 L703.9,320.6 L713.8,319.9 L743.5,314.3 L801.8,298.0 L855.7,297.3" fill="none" stroke="#ef3b20" stroke-width="3.5" stroke-linecap="round" stroke-linejoin="round"/>
  <circle cx="856.0" cy="295.1" r="5" fill="#ef3b20"/>
  <text x="776.0" y="285.1" font-family="'Caveat', cursive, sans-serif" font-size="16" font-weight="700" fill="#ef3b20">1,406</text>
  <text x="96.0" y="482" text-anchor="middle" font-family="'Caveat', cursive, sans-serif" font-size="15" font-weight="600" fill="#2c2a29">May 17</text>
  <text x="283.7" y="482" text-anchor="middle" font-family="'Caveat', cursive, sans-serif" font-size="15" font-weight="600" fill="#2c2a29">Jun 6</text>
  <text x="480.7" y="482" text-anchor="middle" font-family="'Caveat', cursive, sans-serif" font-size="15" font-weight="600" fill="#2c2a29">Jun 27</text>
  <text x="668.3" y="482" text-anchor="middle" font-family="'Caveat', cursive, sans-serif" font-size="15" font-weight="600" fill="#2c2a29">Jul 17</text>
  <text x="856.0" y="482" text-anchor="middle" font-family="'Caveat', cursive, sans-serif" font-size="15" font-weight="600" fill="#2c2a29">Aug 6</text>
  <text x="476" y="546" text-anchor="middle" font-family="'Caveat', cursive, sans-serif" font-size="17" font-weight="600" fill="#5c5a59">Date</text>
  <text transform="translate(22 284) rotate(-90)" text-anchor="middle" font-family="'Caveat', cursive, sans-serif" font-size="17" font-weight="700" fill="#2563eb">installs</text>
  <text transform="translate(946 284) rotate(90)" text-anchor="middle" font-family="'Caveat', cursive, sans-serif" font-size="17" font-weight="700" fill="#ef3b20">downloads</text>
  
</svg>
