<svg xmlns="http://www.w3.org/2000/svg" width="960" height="560" viewBox="0 0 960 560" role="img" aria-label="Quick Prompt · VS Code Marketplace line chart">
  <defs>
    <style>
      @import url('https://fonts.googleapis.com/css2?family=Caveat:wght@400;700&amp;display=swap');
      text { font-family: 'Caveat', cursive, sans-serif; }
    </style>
  </defs>
  <rect width="960" height="560" fill="#fdfaf6"/>
  <text x="480" y="38" text-anchor="middle" font-size="26" font-weight="700" fill="#2c2a29">Quick Prompt · VS Code Marketplace</text>
  <g transform="translate(287.5,76)"><rect x="0" y="-15" width="185" height="30" rx="3" fill="#fdfaf6" stroke="#2c2a29" stroke-width="1.5"/><line x1="10" y1="0" x2="32" y2="0" stroke="#2563eb" stroke-width="3.5" stroke-linecap="round"/><text x="40" y="6" font-family="'Caveat', cursive, sans-serif" font-size="15" font-weight="700" fill="#2c2a29">installs (left)</text></g>
  <g transform="translate(487.5,76)"><rect x="0" y="-15" width="185" height="30" rx="3" fill="#fdfaf6" stroke="#2c2a29" stroke-width="1.5"/><line x1="10" y1="0" x2="32" y2="0" stroke="#ef3b20" stroke-width="3.5" stroke-linecap="round"/><text x="40" y="6" font-family="'Caveat', cursive, sans-serif" font-size="15" font-weight="700" fill="#2c2a29">downloads (right)</text></g>
  <line x1="96" y1="455.0" x2="856" y2="455.6" stroke="#2c2a29" stroke-width="1" stroke-dasharray="6 4" opacity="0.15"/>
  <line x1="96" y1="369.1" x2="856" y2="368.3" stroke="#2c2a29" stroke-width="1" stroke-dasharray="6 4" opacity="0.15"/>
  <line x1="96" y1="280.5" x2="856" y2="281.1" stroke="#2c2a29" stroke-width="1" stroke-dasharray="6 4" opacity="0.15"/>
  <line x1="96" y1="199.3" x2="856" y2="200.6" stroke="#2c2a29" stroke-width="1" stroke-dasharray="6 4" opacity="0.15"/>
  <line x1="96" y1="112.1" x2="856" y2="111.3" stroke="#2c2a29" stroke-width="1" stroke-dasharray="6 4" opacity="0.15"/>
  <line x1="90" y1="456.0" x2="96" y2="456.0" stroke="#2563eb" stroke-width="2"/><text x="86" y="461.0" text-anchor="end" font-family="'Caveat', cursive, sans-serif" font-size="15" font-weight="700" fill="#2563eb">33</text>
  <line x1="90" y1="368.2" x2="96" y2="368.2" stroke="#2563eb" stroke-width="2"/><text x="86" y="373.2" text-anchor="end" font-family="'Caveat', cursive, sans-serif" font-size="15" font-weight="700" fill="#2563eb">45</text>
  <line x1="90" y1="280.3" x2="96" y2="280.3" stroke="#2563eb" stroke-width="2"/><text x="86" y="285.3" text-anchor="end" font-family="'Caveat', cursive, sans-serif" font-size="15" font-weight="700" fill="#2563eb">57</text>
  <line x1="90" y1="199.8" x2="96" y2="199.8" stroke="#2563eb" stroke-width="2"/><text x="86" y="204.8" text-anchor="end" font-family="'Caveat', cursive, sans-serif" font-size="15" font-weight="700" fill="#2563eb">68</text>
  <line x1="90" y1="112.0" x2="96" y2="112.0" stroke="#2563eb" stroke-width="2"/><text x="86" y="117.0" text-anchor="end" font-family="'Caveat', cursive, sans-serif" font-size="15" font-weight="700" fill="#2563eb">80</text>
  <line x1="856" y1="456.0" x2="862" y2="456.0" stroke="#ef3b20" stroke-width="2"/><text x="866" y="461.0" text-anchor="start" font-family="'Caveat', cursive, sans-serif" font-size="15" font-weight="700" fill="#ef3b20">425</text>
  <line x1="856" y1="369.9" x2="862" y2="369.9" stroke="#ef3b20" stroke-width="2"/><text x="866" y="374.9" text-anchor="start" font-family="'Caveat', cursive, sans-serif" font-size="15" font-weight="700" fill="#ef3b20">819</text>
  <line x1="856" y1="283.9" x2="862" y2="283.9" stroke="#ef3b20" stroke-width="2"/><text x="866" y="288.9" text-anchor="start" font-family="'Caveat', cursive, sans-serif" font-size="15" font-weight="700" fill="#ef3b20">1.2K</text>
  <line x1="856" y1="198.1" x2="862" y2="198.1" stroke="#ef3b20" stroke-width="2"/><text x="866" y="203.1" text-anchor="start" font-family="'Caveat', cursive, sans-serif" font-size="15" font-weight="700" fill="#ef3b20">1.6K</text>
  <line x1="856" y1="112.0" x2="862" y2="112.0" stroke="#ef3b20" stroke-width="2"/><text x="866" y="117.0" text-anchor="start" font-family="'Caveat', cursive, sans-serif" font-size="15" font-weight="700" fill="#ef3b20">2K</text>
  <path d="M94.8,111.7 L94.7,456.8 L854.8,456.0" fill="none" stroke="#2c2a29" stroke-width="2.5" stroke-linecap="round"/>
  <path d="M855.9,111.0 L854.6,456.4" fill="none" stroke="#2c2a29" stroke-width="2" stroke-linecap="round" stroke-dasharray="4 3" opacity="0.5"/>
  <path d="M97.7,395.4 L99.2,399.4 L112.2,397.2 L115.4,398.5 L125.2,397.7 L134.9,399.7 L149.1,395.2 L170.3,388.1 L200.7,388.8 L240.3,380.4 L248.5,373.1 L251.2,374.3 L268.4,376.5 L279.0,375.3 L314.6,365.8 L318.8,359.4 L332.7,360.9 L343.6,361.0 L367.8,360.7 L371.4,360.3 L378.8,351.9 L383.1,345.0 L392.3,347.8 L398.6,347.4 L437.2,340.1 L442.0,336.5 L460.6,340.3 L463.6,324.9 L479.3,315.4 L490.8,317.9 L499.0,314.5 L509.7,299.9 L513.5,303.5 L521.5,302.1 L525.2,294.1 L531.7,289.6 L541.1,273.9 L549.5,272.7 L562.8,273.3 L581.5,272.1 L592.1,270.9 L596.2,267.1 L624.0,265.4 L642.3,251.0 L655.4,213.7 L671.1,198.7 L700.7,165.5 L729.0,153.5 L734.2,157.0 L741.9,157.2 L754.9,157.9 L764.7,157.2 L786.0,150.3 L790.9,141.7 L800.9,140.4 L806.5,141.6 L812.7,133.4 L815.5,133.5 L842.0,128.6 L845.8,126.7 L855.9,117.7" fill="none" stroke="#2563eb" stroke-width="3.5" stroke-linecap="round" stroke-linejoin="round"/>
  <circle cx="856.0" cy="119.3" r="5" fill="#2563eb"/>
  <text x="776.0" y="109.3" font-family="'Caveat', cursive, sans-serif" font-size="16" font-weight="700" fill="#2563eb">79</text>
  <path d="M95.3,430.5 L103.3,429.5 L113.8,423.8 L117.1,419.2 L122.0,418.2 L131.8,414.0 L149.1,409.6 L169.9,410.2 L197.0,404.5 L244.4,393.3 L249.5,395.9 L253.8,392.3 L271.0,390.5 L282.7,388.3 L313.6,383.4 L318.2,378.2 L336.7,376.0 L347.0,377.7 L367.5,367.9 L370.5,364.3 L380.2,364.1 L381.6,365.9 L393.3,365.1 L401.3,363.4 L438.5,361.1 L444.3,363.4 L461.7,359.5 L464.2,358.7 L479.5,354.8 L490.8,352.2 L497.8,353.6 L510.7,348.2 L513.7,351.6 L521.9,350.4 L526.7,347.1 L532.4,348.5 L542.6,347.3 L552.5,347.5 L564.5,345.3 L580.8,344.9 L590.5,344.7 L596.3,342.8 L622.3,338.8 L644.7,335.5 L657.4,325.2 L670.4,322.3 L696.3,325.8 L731.5,320.6 L737.4,322.8 L741.6,323.7 L750.5,321.4 L765.1,320.7 L784.2,322.0 L790.9,322.3 L800.9,317.8 L808.9,315.4 L811.0,315.0 L816.6,313.2 L841.0,306.3 L845.0,305.5 L856.9,301.8" fill="none" stroke="#ef3b20" stroke-width="3.5" stroke-linecap="round" stroke-linejoin="round"/>
  <circle cx="856.0" cy="303.1" r="5" fill="#ef3b20"/>
  <text x="776.0" y="293.1" font-family="'Caveat', cursive, sans-serif" font-size="16" font-weight="700" fill="#ef3b20">1,125</text>
  <text x="96.0" y="482" text-anchor="middle" font-family="'Caveat', cursive, sans-serif" font-size="15" font-weight="600" fill="#2c2a29">May 17</text>
  <text x="286.0" y="482" text-anchor="middle" font-family="'Caveat', cursive, sans-serif" font-size="15" font-weight="600" fill="#2c2a29">Jun 21</text>
  <text x="476.0" y="482" text-anchor="middle" font-family="'Caveat', cursive, sans-serif" font-size="15" font-weight="600" fill="#2c2a29">Jul 26</text>
  <text x="666.0" y="482" text-anchor="middle" font-family="'Caveat', cursive, sans-serif" font-size="15" font-weight="600" fill="#2c2a29">Aug 30</text>
  <text x="856.0" y="482" text-anchor="middle" font-family="'Caveat', cursive, sans-serif" font-size="15" font-weight="600" fill="#2c2a29">Oct 4</text>
  <text x="476" y="546" text-anchor="middle" font-family="'Caveat', cursive, sans-serif" font-size="17" font-weight="600" fill="#5c5a59">Date</text>
  <text transform="translate(22 284) rotate(-90)" text-anchor="middle" font-family="'Caveat', cursive, sans-serif" font-size="17" font-weight="700" fill="#2563eb">installs</text>
  <text transform="translate(946 284) rotate(90)" text-anchor="middle" font-family="'Caveat', cursive, sans-serif" font-size="17" font-weight="700" fill="#ef3b20">downloads</text>
  
</svg>
