<svg xmlns="http://www.w3.org/2000/svg" width="960" height="560" viewBox="0 0 960 560" role="img" aria-label="Quick Prompt · Open VSX Registry line chart">
  <defs>
    <style>
      @import url('https://fonts.googleapis.com/css2?family=Caveat:wght@400;700&amp;display=swap');
      text { font-family: 'Caveat', cursive, sans-serif; }
    </style>
  </defs>
  <rect width="960" height="560" fill="#fdfaf6"/>
  <text x="480" y="38" text-anchor="middle" font-size="26" font-weight="700" fill="#2c2a29">Quick Prompt · Open VSX Registry</text>
  <g transform="translate(387.5,76)"><rect x="0" y="-15" width="185" height="30" rx="3" fill="#fdfaf6" stroke="#2c2a29" stroke-width="1.5"/><line x1="10" y1="0" x2="32" y2="0" stroke="#ef3b20" stroke-width="3.5" stroke-linecap="round"/><text x="40" y="6" font-family="'Caveat', cursive, sans-serif" font-size="15" font-weight="700" fill="#2c2a29">downloads</text></g>
  <line x1="96" y1="455.0" x2="856" y2="455.6" stroke="#2c2a29" stroke-width="1" stroke-dasharray="6 4" opacity="0.2"/><text x="86" y="461.0" text-anchor="end" font-family="'Caveat', cursive, sans-serif" font-size="16" font-weight="600" fill="#2c2a29">2.8K</text>
  <line x1="96" y1="371.0" x2="856" y2="370.1" stroke="#2c2a29" stroke-width="1" stroke-dasharray="6 4" opacity="0.2"/><text x="86" y="375.0" text-anchor="end" font-family="'Caveat', cursive, sans-serif" font-size="16" font-weight="600" fill="#2c2a29">4.6K</text>
  <line x1="96" y1="284.1" x2="856" y2="284.7" stroke="#2c2a29" stroke-width="1" stroke-dasharray="6 4" opacity="0.2"/><text x="86" y="289.0" text-anchor="end" font-family="'Caveat', cursive, sans-serif" font-size="16" font-weight="600" fill="#2c2a29">6.4K</text>
  <line x1="96" y1="197.4" x2="856" y2="198.8" stroke="#2c2a29" stroke-width="1" stroke-dasharray="6 4" opacity="0.2"/><text x="86" y="203.0" text-anchor="end" font-family="'Caveat', cursive, sans-serif" font-size="16" font-weight="600" fill="#2c2a29">8.2K</text>
  <line x1="96" y1="112.1" x2="856" y2="111.3" stroke="#2c2a29" stroke-width="1" stroke-dasharray="6 4" opacity="0.2"/><text x="86" y="117.0" text-anchor="end" font-family="'Caveat', cursive, sans-serif" font-size="16" font-weight="600" fill="#2c2a29">10K</text>
  <path d="M94.8,111.7 L94.7,456.8 L854.8,456.0" fill="none" stroke="#2c2a29" stroke-width="2.5" stroke-linecap="round"/>
  
  <path d="M97.7,404.5 L121.1,387.8 L139.7,371.6 L142.9,367.1 L158.2,354.3 L173.5,349.2 L182.3,340.6 L187.3,333.8 L196.0,331.6 L197.6,330.0 L211.4,329.3 L219.5,329.5 L226.0,326.1 L231.2,324.4 L239.7,322.0 L260.3,313.6 L263.3,312.3 L274.4,310.1 L298.7,300.3 L302.3,299.6 L342.6,285.0 L352.4,273.6 L356.1,275.8 L411.7,269.3 L417.8,268.9 L422.6,265.2 L430.4,263.2 L449.9,250.5 L454.7,247.3 L471.7,241.3 L507.3,213.1 L540.0,211.1 L549.3,213.9 L573.8,211.7 L577.5,210.7 L611.4,197.8 L620.8,191.3 L634.8,187.7 L664.5,184.5 L672.5,182.9 L683.1,181.1 L687.3,184.4 L709.8,179.3 L711.8,178.5 L725.0,176.5 L762.7,173.5 L770.7,176.7 L771.8,171.8 L777.1,175.0 L784.8,171.8 L803.3,171.4 L835.2,162.6 L851.1,162.1 L856.1,159.9" fill="none" stroke="#ef3b20" stroke-width="3.5" stroke-linecap="round" stroke-linejoin="round"/>
  <circle cx="856.0" cy="159.5" r="5" fill="#ef3b20"/>
  <text x="776.0" y="149.5" font-family="'Caveat', cursive, sans-serif" font-size="16" font-weight="700" fill="#ef3b20">9,013</text>
  <text x="96.0" y="482" text-anchor="middle" font-family="'Caveat', cursive, sans-serif" font-size="15" font-weight="600" fill="#2c2a29">May 17</text>
  <text x="287.4" y="482" text-anchor="middle" font-family="'Caveat', cursive, sans-serif" font-size="15" font-weight="600" fill="#2c2a29">Jun 21</text>
  <text x="478.7" y="482" text-anchor="middle" font-family="'Caveat', cursive, sans-serif" font-size="15" font-weight="600" fill="#2c2a29">Jul 26</text>
  <text x="664.6" y="482" text-anchor="middle" font-family="'Caveat', cursive, sans-serif" font-size="15" font-weight="600" fill="#2c2a29">Aug 29</text>
  <text x="856.0" y="482" text-anchor="middle" font-family="'Caveat', cursive, sans-serif" font-size="15" font-weight="600" fill="#2c2a29">Oct 3</text>
  <text x="476" y="546" text-anchor="middle" font-family="'Caveat', cursive, sans-serif" font-size="17" font-weight="600" fill="#5c5a59">Date</text>
  <text transform="translate(22 284) rotate(-90)" text-anchor="middle" font-family="'Caveat', cursive, sans-serif" font-size="17" font-weight="600" fill="#5c5a59">Downloads</text>
  
  
</svg>
