<svg xmlns="http://www.w3.org/2000/svg" width="960" height="560" viewBox="0 0 960 560" role="img" aria-label="Quick Prompt · VS Code Marketplace line chart">
  <defs>
    <style>
      @import url('https://fonts.googleapis.com/css2?family=Caveat:wght@400;700&amp;display=swap');
      text { font-family: 'Caveat', cursive, sans-serif; }
    </style>
  </defs>
  <rect width="960" height="560" fill="#fdfaf6"/>
  <text x="480" y="38" text-anchor="middle" font-size="26" font-weight="700" fill="#2c2a29">Quick Prompt · VS Code Marketplace</text>
  <g transform="translate(287.5,76)"><rect x="0" y="-15" width="185" height="30" rx="3" fill="#fdfaf6" stroke="#2c2a29" stroke-width="1.5"/><line x1="10" y1="0" x2="32" y2="0" stroke="#2563eb" stroke-width="3.5" stroke-linecap="round"/><text x="40" y="6" font-family="'Caveat', cursive, sans-serif" font-size="15" font-weight="700" fill="#2c2a29">installs (left)</text></g>
  <g transform="translate(487.5,76)"><rect x="0" y="-15" width="185" height="30" rx="3" fill="#fdfaf6" stroke="#2c2a29" stroke-width="1.5"/><line x1="10" y1="0" x2="32" y2="0" stroke="#ef3b20" stroke-width="3.5" stroke-linecap="round"/><text x="40" y="6" font-family="'Caveat', cursive, sans-serif" font-size="15" font-weight="700" fill="#2c2a29">downloads (right)</text></g>
  <line x1="96" y1="455.0" x2="856" y2="455.6" stroke="#2c2a29" stroke-width="1" stroke-dasharray="6 4" opacity="0.15"/>
  <line x1="96" y1="353.8" x2="856" y2="352.9" stroke="#2c2a29" stroke-width="1" stroke-dasharray="6 4" opacity="0.15"/>
  <line x1="96" y1="284.1" x2="856" y2="284.8" stroke="#2c2a29" stroke-width="1" stroke-dasharray="6 4" opacity="0.15"/>
  <line x1="96" y1="180.2" x2="856" y2="181.6" stroke="#2c2a29" stroke-width="1" stroke-dasharray="6 4" opacity="0.15"/>
  <line x1="96" y1="112.1" x2="856" y2="111.3" stroke="#2c2a29" stroke-width="1" stroke-dasharray="6 4" opacity="0.15"/>
  <line x1="90" y1="456.0" x2="96" y2="456.0" stroke="#2563eb" stroke-width="2"/><text x="86" y="461.0" text-anchor="end" font-family="'Caveat', cursive, sans-serif" font-size="15" font-weight="700" fill="#2563eb">40</text>
  <line x1="90" y1="352.8" x2="96" y2="352.8" stroke="#2563eb" stroke-width="2"/><text x="86" y="357.8" text-anchor="end" font-family="'Caveat', cursive, sans-serif" font-size="15" font-weight="700" fill="#2563eb">43</text>
  <line x1="90" y1="284.0" x2="96" y2="284.0" stroke="#2563eb" stroke-width="2"/><text x="86" y="289.0" text-anchor="end" font-family="'Caveat', cursive, sans-serif" font-size="15" font-weight="700" fill="#2563eb">45</text>
  <line x1="90" y1="180.8" x2="96" y2="180.8" stroke="#2563eb" stroke-width="2"/><text x="86" y="185.8" text-anchor="end" font-family="'Caveat', cursive, sans-serif" font-size="15" font-weight="700" fill="#2563eb">48</text>
  <line x1="90" y1="112.0" x2="96" y2="112.0" stroke="#2563eb" stroke-width="2"/><text x="86" y="117.0" text-anchor="end" font-family="'Caveat', cursive, sans-serif" font-size="15" font-weight="700" fill="#2563eb">50</text>
  <line x1="856" y1="456.0" x2="862" y2="456.0" stroke="#ef3b20" stroke-width="2"/><text x="866" y="461.0" text-anchor="start" font-family="'Caveat', cursive, sans-serif" font-size="15" font-weight="700" fill="#ef3b20">503</text>
  <line x1="856" y1="370.3" x2="862" y2="370.3" stroke="#ef3b20" stroke-width="2"/><text x="866" y="375.3" text-anchor="start" font-family="'Caveat', cursive, sans-serif" font-size="15" font-weight="700" fill="#ef3b20">577</text>
  <line x1="856" y1="283.4" x2="862" y2="283.4" stroke="#ef3b20" stroke-width="2"/><text x="866" y="288.4" text-anchor="start" font-family="'Caveat', cursive, sans-serif" font-size="15" font-weight="700" fill="#ef3b20">652</text>
  <line x1="856" y1="197.7" x2="862" y2="197.7" stroke="#ef3b20" stroke-width="2"/><text x="866" y="202.7" text-anchor="start" font-family="'Caveat', cursive, sans-serif" font-size="15" font-weight="700" fill="#ef3b20">726</text>
  <line x1="856" y1="112.0" x2="862" y2="112.0" stroke="#ef3b20" stroke-width="2"/><text x="866" y="117.0" text-anchor="start" font-family="'Caveat', cursive, sans-serif" font-size="15" font-weight="700" fill="#ef3b20">800</text>
  <path d="M94.8,111.7 L94.7,456.8 L854.8,456.0" fill="none" stroke="#2c2a29" stroke-width="2.5" stroke-linecap="round"/>
  <path d="M855.9,111.0 L854.6,456.4" fill="none" stroke="#2c2a29" stroke-width="2" stroke-linecap="round" stroke-dasharray="4 3" opacity="0.5"/>
  <path d="M97.7,419.6 L116.1,423.5 L163.0,421.4 L183.1,422.7 L209.8,421.9 L253.4,423.8 L318.3,419.4 L407.3,385.2 L522.3,385.9 L697.2,350.4 L722.4,316.0 L742.0,317.2 L810.0,319.4 L854.5,318.2" fill="none" stroke="#2563eb" stroke-width="3.5" stroke-linecap="round" stroke-linejoin="round"/>
  <circle cx="96.0" cy="421.6" r="3.5" fill="#2563eb"/>
  <circle cx="118.4" cy="421.6" r="3.5" fill="#2563eb"/>
  <circle cx="163.1" cy="421.6" r="3.5" fill="#2563eb"/>
  <circle cx="185.4" cy="421.6" r="3.5" fill="#2563eb"/>
  <circle cx="207.8" cy="421.6" r="3.5" fill="#2563eb"/>
  <circle cx="252.5" cy="421.6" r="3.5" fill="#2563eb"/>
  <circle cx="319.5" cy="421.6" r="3.5" fill="#2563eb"/>
  <circle cx="408.9" cy="387.2" r="3.5" fill="#2563eb"/>
  <circle cx="520.7" cy="387.2" r="3.5" fill="#2563eb"/>
  <circle cx="699.5" cy="352.8" r="3.5" fill="#2563eb"/>
  <circle cx="721.9" cy="318.4" r="3.5" fill="#2563eb"/>
  <circle cx="744.2" cy="318.4" r="3.5" fill="#2563eb"/>
  <circle cx="811.3" cy="318.4" r="3.5" fill="#2563eb"/>
  <circle cx="856.0" cy="318.4" r="3.5" fill="#2563eb"/>
  <text x="776.0" y="308.4" font-family="'Caveat', cursive, sans-serif" font-size="16" font-weight="700" fill="#2563eb">44</text>
  <path d="M95.3,410.9 L120.3,408.0 L164.6,382.5 L184.8,359.2 L206.6,354.4 L250.3,334.2 L318.4,310.1 L406.9,294.7 L518.5,268.3 L701.4,224.2 L723.4,223.1 L744.6,216.7 L812.6,197.9 L858.1,188.3" fill="none" stroke="#ef3b20" stroke-width="3.5" stroke-linecap="round" stroke-linejoin="round"/>
  <circle cx="96.0" cy="410.8" r="3.5" fill="#ef3b20"/>
  <circle cx="118.4" cy="408.5" r="3.5" fill="#ef3b20"/>
  <circle cx="163.1" cy="384.2" r="3.5" fill="#ef3b20"/>
  <circle cx="185.4" cy="361.0" r="3.5" fill="#ef3b20"/>
  <circle cx="207.8" cy="356.4" r="3.5" fill="#ef3b20"/>
  <circle cx="252.5" cy="336.7" r="3.5" fill="#ef3b20"/>
  <circle cx="319.5" cy="312.4" r="3.5" fill="#ef3b20"/>
  <circle cx="408.9" cy="292.7" r="3.5" fill="#ef3b20"/>
  <circle cx="520.7" cy="267.2" r="3.5" fill="#ef3b20"/>
  <circle cx="699.5" cy="226.7" r="3.5" fill="#ef3b20"/>
  <circle cx="721.9" cy="222.0" r="3.5" fill="#ef3b20"/>
  <circle cx="744.2" cy="218.6" r="3.5" fill="#ef3b20"/>
  <circle cx="811.3" cy="197.7" r="3.5" fill="#ef3b20"/>
  <circle cx="856.0" cy="188.4" r="3.5" fill="#ef3b20"/>
  <text x="776.0" y="178.4" font-family="'Caveat', cursive, sans-serif" font-size="16" font-weight="700" fill="#ef3b20">734</text>
  <text x="96.0" y="482" text-anchor="middle" font-family="'Caveat', cursive, sans-serif" font-size="15" font-weight="600" fill="#2c2a29">May 17</text>
  <text x="297.2" y="482" text-anchor="middle" font-family="'Caveat', cursive, sans-serif" font-size="15" font-weight="600" fill="#2c2a29">May 26</text>
  <text x="476.0" y="482" text-anchor="middle" font-family="'Caveat', cursive, sans-serif" font-size="15" font-weight="600" fill="#2c2a29">Jun 3</text>
  <text x="677.2" y="482" text-anchor="middle" font-family="'Caveat', cursive, sans-serif" font-size="15" font-weight="600" fill="#2c2a29">Jun 12</text>
  <text x="856.0" y="482" text-anchor="middle" font-family="'Caveat', cursive, sans-serif" font-size="15" font-weight="600" fill="#2c2a29">Jun 20</text>
  <text x="476" y="546" text-anchor="middle" font-family="'Caveat', cursive, sans-serif" font-size="17" font-weight="600" fill="#5c5a59">Date</text>
  <text transform="translate(22 284) rotate(-90)" text-anchor="middle" font-family="'Caveat', cursive, sans-serif" font-size="17" font-weight="700" fill="#2563eb">installs</text>
  <text transform="translate(946 284) rotate(90)" text-anchor="middle" font-family="'Caveat', cursive, sans-serif" font-size="17" font-weight="700" fill="#ef3b20">downloads</text>
  
</svg>
